#!OML:ASF X:\für Bonn\!DataBase\2005_08_12_Daniel\c3d\Daniel.ASF
:FULLY-SPECIFIED
:DEGREES
52
root -3.48812 17.3897 0.470272 423.047 -79.5608 -453.829
lowerback 54.3177 -17.2174 -5.44031
upperback 12.8235 -27.1233 -1.02557
thorax -3.7894 -14.846 11.5985
lowerneck 13.6498 14.3284 0.828545
upperneck -4.38923 18.4647 -8.39553
head -2.5636 9.52276 -3.64953
rclavicle 3.81667e-014 -3.33958e-014
rhumerus -62.1727 10.3768 -74.7402
rradius 30.1853
rwrist 24.5161
rhand -40.8639 45.4028
rfingers 7.12502
rthumb -13.8005 15.8806
lclavicle 3.81667e-014 -3.33958e-014
lhumerus 45.1611 -2.87409 73.6155
lradius 126.222
lwrist 30.4424
lhand -13.7613 -15.125
lfingers 7.12502
lthumb 12.3593 14.4897
rfemur -90.0046 -14.7958 32.5892
rtibia 121.917
rfoot -3.51477 14.0913
rtoes -14.0058
lfemur 22.8651 -9.88914 -19.4686
ltibia 23.6193
lfoot -18.7978 4.78683
ltoes 7.42669
53
root -3.49524 17.3958 0.488689 424.293 -79.4355 -455.096
lowerback 54.4284 -17.2146 -5.34312
upperback 12.8581 -27.091 -1.05578
thorax -3.80668 -14.8319 11.5314
lowerneck 13.5153 14.3429 0.676302
upperneck -4.05544 18.5013 -7.96636
head -2.78103 9.49943 -3.86372
rclavicle 5.56597e-015 6.36111e-015
rhumerus -61.9269 10.0786 -74.4612
rradius 29.3639
rwrist 24.7142
rhand -40.1981 45.288
rfingers 7.12502
rthumb -13.1587 15.7232
lclavicle 5.56597e-015 6.36111e-015
lhumerus 44.4472 -3.02279 73.7914
lradius 126.22
lwrist 30.5117
lhand -13.9285 -15.1787
lfingers 7.12502
lthumb 12.198 14.4456
rfemur -90.8116 -15.0832 33.1408
rtibia 121.997
rfoot -3.13998 14.0103
rtoes -12.7905
lfemur 22.9756 -9.67732 -19.2191
ltibia 23.495
lfoot -18.7541 4.61293
ltoes 7.66148
54
root -3.5035 17.4027 0.499444 425.606 -79.3103 -456.394
lowerback 54.4456 -17.1536 -5.28222
upperback 12.8922 -27.0004 -1.05652
thorax -3.80164 -14.794 11.4772
lowerneck 13.475 14.3604 0.583576
upperneck -4.0411 18.5145 -7.90087
head -2.78332 9.50321 -3.82526
rclavicle -3.4191e-014 1.1291e-013
rhumerus -61.7007 9.85969 -74.2426
rradius 28.7249
rwrist 24.8462
rhand -39.4681 44.9692
rfingers 7.12502
rthumb -12.455 15.3603
lclavicle -3.4191e-014 1.1291e-013
lhumerus 43.7661 -3.1141 74.0711
lradius 126.146
lwrist 30.6817
lhand -13.9828 -15.2534
lfingers 7.12502
lthumb 12.1457 14.3741
rfemur -91.3646 -15.3411 33.6664
rtibia 122.045
rfoot -2.83378 13.8698
rtoes -12.179
lfemur 23.0166 -9.43433 -18.9192
ltibia 23.4264
lfoot -18.7132 4.41933
ltoes 7.924
55
root -3.51337 17.408 0.509727 426.925 -79.1858 -457.64
lowerback 54.39 -17.09 -5.2431
upperback 12.8848 -26.9044 -1.01109
thorax -3.81023 -14.7506 11.4753
lowerneck 13.4649 14.3839 0.518446
upperneck -3.98773 18.531 -7.92931
head -2.76539 9.51174 -3.82055
rclavicle 6.52014e-014 2.8625e-014
rhumerus -61.4339 9.81653 -74.0371
rradius 28.2435
rwrist 24.8955
rhand -38.6922 44.5541
rfingers 7.12502
rthumb -11.7068 14.9013
lclavicle 6.52014e-014 2.8625e-014
lhumerus 43.0601 -3.0865 74.4613
lradius 126.069
lwrist 30.9113
lhand -13.9581 -15.3175
lfingers 7.12502
lthumb 12.1695 14.3085
rfemur -91.7501 -15.6379 34.132
rtibia 122.079
rfoot -2.51346 13.7253
rtoes -12.9614
lfemur 22.98 -9.22156 -18.6378
ltibia 23.4121
lfoot -18.706 4.24116
ltoes 8.02038
56
root -3.52674 17.4093 0.519137 428.277 -79.0476 -458.918
lowerback 54.2664 -17.0246 -5.16173
upperback 12.8847 -26.7792 -0.982048
thorax -3.8277 -14.6876 11.4298
lowerneck 13.4629 14.3748 0.568107
upperneck -3.90546 18.524 -7.97407
head -2.72751 9.5076 -3.83469
rclavicle 1.98785e-014 -5.725e-014
rhumerus -61.164 9.84015 -73.9243
rradius 27.8768
rwrist 24.9231
rhand -38.0827 44.1029
rfingers 7.12502
rthumb -11.119 14.4175
lclavicle 1.98785e-014 -5.725e-014
lhumerus 42.3821 -3.03164 74.9026
lradius 125.965
lwrist 31.2343
lhand -13.8188 -15.4211
lfingers 7.12502
lthumb 12.3038 14.1969
rfemur -91.858 -15.9523 34.5298
rtibia 122.046
rfoot -2.11131 13.5073
rtoes -12.8726
lfemur 22.9308 -9.07091 -18.3979
ltibia 23.4663
lfoot -18.7716 4.12674
ltoes 8.30216
57
root -3.54151 17.4103 0.527813 429.696 -78.9155 -460.225
lowerback 54.074 -16.9443 -5.0946
upperback 12.8658 -26.6349 -0.931068
thorax -3.849 -14.6134 11.4024
lowerneck 13.3729 14.3557 0.625592
upperneck -3.71574 18.5104 -8.00964
head -2.63675 9.49677 -3.82922
rclavicle -4.29375e-014 4.6118e-014
rhumerus -60.8802 9.90292 -73.7757
rradius 27.6684
rwrist 25.0773
rhand -37.61 43.658
rfingers 7.12502
rthumb -10.6631 13.9486
lclavicle -4.29375e-014 4.6118e-014
lhumerus 41.7307 -2.88153 75.3873
lradius 125.864
lwrist 31.5514
lhand -13.6484 -15.4301
lfingers 7.12502
lthumb 12.4681 14.1779
rfemur -91.7066 -16.2673 34.8272
rtibia 121.903
rfoot -1.58587 13.3205
rtoes -12.0279
lfemur 22.8331 -8.94836 -18.1884
ltibia 23.5583
lfoot -18.8729 4.06746
ltoes 8.46018
58
root -3.55795 17.4117 0.536194 431.087 -78.7914 -461.49
lowerback 53.8242 -16.8469 -5.03989
upperback 12.844 -26.4715 -0.869594
thorax -3.8626 -14.5303 11.3787
lowerneck 13.2212 14.305 0.753733
upperneck -3.45952 18.4708 -8.05288
head -2.506 9.47079 -3.82379
rclavicle 3.89618e-014 -6.36111e-015
rhumerus -60.6125 9.99235 -73.6366
rradius 27.6272
rwrist 25.3404
rhand -37.4067 43.2663
rfingers 7.12502
rthumb -10.467 13.5469
lclavicle 3.89618e-014 -6.36111e-015
lhumerus 41.1442 -2.64536 75.8569
lradius 125.743
lwrist 31.8922
lhand -13.4903 -15.4549
lfingers 7.12502
lthumb 12.6206 14.1439
rfemur -91.3095 -16.6261 35.0195
rtibia 121.677
rfoot -1.04494 13.2391
rtoes -12.5185
lfemur 22.7093 -8.83273 -18.0063
ltibia 23.6896
lfoot -18.9862 4.04051
ltoes 8.54357
59
root -3.57526 17.4157 0.544001 432.553 -78.6626 -462.801
lowerback 53.5188 -16.7453 -4.98442
upperback 12.7931 -26.2926 -0.791193
thorax -3.8982 -14.4336 11.3684
lowerneck 13.079 14.2407 0.890581
upperneck -3.1716 18.4138 -8.09696
head -2.36687 9.43515 -3.81847
rclavicle 4.05521e-014 -5.56597e-014
rhumerus -60.3399 10.1313 -73.4814
rradius 27.6616
rwrist 25.7202
rhand -37.4465 42.9926
rfingers 7.12502
rthumb -10.5054 13.2751
lclavicle 4.05521e-014 -5.56597e-014
lhumerus 40.5013 -2.34025 76.3259
lradius 125.69
lwrist 32.1978
lhand -13.3462 -15.3614
lfingers 7.12502
lthumb 12.7595 14.2288
rfemur -90.6902 -17.0055 35.1072
rtibia 121.389
rfoot -0.549021 13.2255
rtoes -13.5546
lfemur 22.5392 -8.77687 -17.8648
ltibia 23.8856
lfoot -19.1908 4.07029
ltoes 8.69498
60
root -3.59425 17.4154 0.551001 434.085 -78.5552 -464.167
lowerback 53.1441 -16.6291 -4.9352
upperback 12.7559 -26.0971 -0.730799
thorax -3.91953 -14.3282 11.3291
lowerneck 12.7033 14.1575 1.13411
upperneck -2.73892 18.362 -8.14666
head -2.12606 9.39696 -3.79601
rclavicle -8.11041e-014 -3.65764e-014
rhumerus -60.0559 10.3071 -73.3869
rradius 27.7986
rwrist 26.1561
rhand -37.7257 42.7545
rfingers 7.12502
rthumb -10.7747 13.0509
lclavicle -8.11041e-014 -3.65764e-014
lhumerus 39.9187 -1.97771 76.6828
lradius 125.662
lwrist 32.4642
lhand -13.3192 -15.1354
lfingers 7.12502
lthumb 12.7855 14.4531
rfemur -89.84 -17.4005 35.0582
rtibia 121.056
rfoot -0.182989 13.2194
rtoes -14.1442
lfemur 22.3071 -8.6785 -17.7455
ltibia 24.1851
lfoot -19.4118 4.11217
ltoes 8.79248
61
root -3.61514 17.4083 0.55782 435.595 -78.4309 -465.486
lowerback 52.7318 -16.5173 -4.86943
upperback 12.6863 -25.8886 -0.643878
thorax -3.96661 -14.2105 11.3091
lowerneck 12.1341 14.0786 1.3673
upperneck -2.13626 18.3277 -8.1187
head -1.80291 9.35884 -3.71811
rclavicle 7.95139e-014 -7.15625e-014
rhumerus -59.7201 10.4732 -73.2405
rradius 27.9625
rwrist 26.6712
rhand -38.1102 42.6158
rfingers 7.12502
rthumb -11.1456 12.9318
lclavicle 7.95139e-014 -7.15625e-014
lhumerus 39.3313 -1.57195 76.9746
lradius 125.648
lwrist 32.6363
lhand -13.3806 -14.791
lfingers 7.12502
lthumb 12.7263 14.8012
rfemur -88.7754 -17.8532 34.9316
rtibia 120.679
rfoot -0.00353702 13.1712
rtoes -14.6406
lfemur 21.9916 -8.64449 -17.6496
ltibia 24.6155
lfoot -19.7349 4.15742
ltoes 8.91024
62
root -3.63694 17.3953 0.563994 437.344 -78.3349 -467.018
lowerback 52.2615 -16.3675 -4.83713
upperback 12.6062 -25.6461 -0.55255
thorax -4.01271 -14.0748 11.2905
lowerneck 11.6046 13.977 1.62572
upperneck -1.55036 18.2609 -8.11968
head -1.49277 9.30568 -3.6606
rclavicle 5.32743e-014 -6.83819e-014
rhumerus -59.3808 10.7037 -73.1442
rradius 28.2147
rwrist 27.0241
rhand -38.5048 42.5596
rfingers 7.12502
rthumb -11.5261 12.8965
lclavicle 5.32743e-014 -6.83819e-014
lhumerus 38.7953 -1.13128 77.151
lradius 125.582
lwrist 32.8401
lhand -13.5766 -14.4875
lfingers 7.12502
lthumb 12.5373 15.1164
rfemur -87.512 -18.3111 34.6849
rtibia 120.255
rfoot 0.15313 13.1653
rtoes -14.6872
lfemur 21.5845 -8.56583 -17.5982
ltibia 25.195
lfoot -20.1269 4.2456
ltoes 8.91351
63
root -3.65792 17.3797 0.571023 439.27 -78.2242 -468.702
lowerback 51.7417 -16.2118 -4.77554
upperback 12.5282 -25.378 -0.475807
thorax -4.06685 -13.9216 11.2353
lowerneck 11.075 13.874 1.89157
upperneck -0.983563 18.1927 -8.08145
head -1.19519 9.25111 -3.59634
rclavicle 6.24184e-014 3.02153e-014
rhumerus -59.0021 10.9883 -73.1575
rradius 28.5364
rwrist 27.1821
rhand -38.8627 42.4581
rfingers 7.12502
rthumb -11.8713 12.8147
lclavicle 6.24184e-014 3.02153e-014
lhumerus 38.3204 -0.688217 77.192
lradius 125.478
lwrist 32.9526
lhand -13.8632 -14.0894
lfingers 7.12502
lthumb 12.261 15.5312
rfemur -86.1101 -18.7495 34.3907
rtibia 119.752
rfoot 0.303708 13.1172
rtoes -14.5285
lfemur 21.0907 -8.50686 -17.5615
ltibia 25.8878
lfoot -20.6128 4.34328
ltoes 8.97166
64
root -3.67764 17.3645 0.578301 441.352 -78.1301 -470.46
lowerback 51.1417 -16.049 -4.72141
upperback 12.4157 -25.091 -0.379419
thorax -4.13963 -13.752 11.1945
lowerneck 10.5307 13.7788 2.07428
upperneck -0.416524 18.124 -7.95974
head -0.913324 9.194 -3.49566
rclavicle -3.97569e-016 -1.24042e-013
rhumerus -58.5739 11.329 -73.1906
rradius 28.9086
rwrist 27.1207
rhand -39.1068 42.3504
rfingers 7.12502
rthumb -12.1067 12.7206
lclavicle -3.97569e-016 -1.24042e-013
lhumerus 37.8042 -0.245539 77.1719
lradius 125.381
lwrist 33.0642
lhand -14.23 -13.7131
lfingers 7.12502
lthumb 11.9073 15.9283
rfemur -84.6387 -19.1274 33.9976
rtibia 119.165
rfoot 0.361587 13.1195
rtoes -14.084
lfemur 20.4824 -8.41604 -17.5418
ltibia 26.618
lfoot -21.0948 4.45676
ltoes 8.99005
65
root -3.69725 17.3477 0.586587 443.638 -78.0508 -472.364
lowerback 50.4608 -15.8897 -4.65874
upperback 12.2794 -24.7931 -0.298021
thorax -4.23539 -13.5667 11.13
lowerneck 10.084 13.6802 2.23304
upperneck 0.0840072 18.0399 -7.84035
head -0.674976 9.1321 -3.40843
rclavicle 2.00773e-013 -2.8625e-014
rhumerus -58.1489 11.7579 -73.3207
rradius 29.3404
rwrist 26.7263
rhand -39.1746 42.2163
rfingers 7.12502
rthumb -12.1721 12.5904
lclavicle 2.00773e-013 -2.8625e-014
lhumerus 37.2366 0.175511 77.0616
lradius 125.285
lwrist 33.1083
lhand -14.642 -13.3567
lfingers 7.12502
lthumb 11.5101 16.3073
rfemur -83.1533 -19.4321 33.5443
rtibia 118.524
rfoot 0.247803 13.1231
rtoes -13.6812
lfemur 19.8511 -8.33245 -17.5834
ltibia 27.2974
lfoot -21.5752 4.65352
ltoes 9.01041
66
root -3.71505 17.3363 0.594204 446.038 -77.945 -474.353
lowerback 49.7168 -15.7147 -4.58056
upperback 12.1486 -24.4655 -0.206848
thorax -4.31553 -13.3686 11.0497
lowerneck 9.71027 13.5635 2.34953
upperneck 0.447756 17.9204 -7.73144
head -0.500054 9.05749 -3.33521
rclavicle 2.98177e-014 -1.25632e-013
rhumerus -57.6769 12.2194 -73.5263
rradius 29.8233
rwrist 25.9926
rhand -39.1591 41.9507
rfingers 7.12502
rthumb -12.157 12.3239
lclavicle 2.98177e-014 -1.25632e-013
lhumerus 36.6553 0.59683 76.9052
lradius 125.202
lwrist 33.217
lhand -14.997 -13.0827
lfingers 7.12502
lthumb 11.1676 16.6001
rfemur -81.5181 -19.625 33.0438
rtibia 117.759
rfoot 0.0315904 13.1056
rtoes -13.2667
lfemur 19.2408 -8.26311 -17.6157
ltibia 27.8645
lfoot -22.0285 4.87756
ltoes 9.04158
